<?xml version="1.0" encoding="iso-8859-1"?>
<!-- Generator: Adobe Illustrator 18.1.1, SVG Export Plug-In . SVG Version: 6.00 Build 0)  -->
<svg version="1.1" id="Capa_1" xmlns="http://www.w3.org/2000/svg" xmlns:xlink="http://www.w3.org/1999/xlink" x="0px" y="0px"
	 viewBox="0 0 25.685 25.685" style="enable-background:new 0 0 25.685 25.685;" xml:space="preserve">
<g>
	<path style="fill:#030104;" d="M22.08,0.098L10.97,3.497C9.624,3.881,8.533,5.285,8.533,6.631v11.557c0,0,0,0.158,0,0.162
		c0,0-0.805-0.543-2.598-0.289c-2.633,0.374-4.768,2.395-4.768,4.515s2.135,3.419,4.768,3.045c2.635-0.372,4.566-2.331,4.566-4.452
		c0,0,0-9.066,0-10.006s1.13-1.343,1.13-1.343l9.823-3.079c0,0,1.087-0.365,1.087,0.641s0,8.031,0,8.031s0,0.002,0,0.006
		c0,0-1.001-0.576-2.794-0.358c-2.633,0.319-4.768,2.298-4.768,4.417c0,2.121,2.135,3.463,4.768,3.143
		c2.635-0.319,4.77-2.297,4.77-4.418V1.84C24.517,0.494,23.425-0.286,22.08,0.098z"/>
</g>
<g>
</g>
<g>
</g>
<g>
</g>
<g>
</g>
<g>
</g>
<g>
</g>
<g>
</g>
<g>
</g>
<g>
</g>
<g>
</g>
<g>
</g>
<g>
</g>
<g>
</g>
<g>
</g>
<g>
</g>
</svg>
